<mxfile host="app.diagrams.net" modified="2024-06-13T13:27:24.037Z" agent="Mozilla/5.0 (X11; Linux x86_64; rv:126.0) Gecko/20100101 Firefox/126.0" version="23.1.5" etag="mNwsRKHZshGijYVHgKhw" type="github">
  <diagram name="Page-1" id="LTLJHB56SYGIF1e-PyQ5">
    <mxGraphModel>
      <root>
        <mxCell id="0" />
        <mxCell id="1" parent="0" />
      </root>
    </mxGraphModel>
  </diagram>
</mxfile>
